#!OML:ASF G:\JayActor3\Patient Classification 1\Patient 1\Session 6\male.ASF
:FULLY-SPECIFIED
:DEGREES
1160
root -1.27663 16.384 -12.7761 356.177 -39.6474 -363.448
lowerback 6.72626 -4.14217 -5.5479
upperback -2.1971 -6.07084 -0.595226
thorax -5.55571 -2.81253 3.14012
lowerneck 8.5933 -6.67045 -4.00909
upperneck 5.30151 -9.41524 3.66324
head 0.607758 -4.84028 1.98378
rclavicle -1.31993e-013 -1.66979e-014
rhumerus -45.0153 7.48731 -77.5305
rradius 36.6744
rwrist 4.2544
rhand -5.41944 -1.66353
rfingers 7.12502
rthumb 20.3904 -30.613
lclavicle -1.31993e-013 -1.66979e-014
lhumerus -35.5539 -2.96085 60.4056
lradius 38.4216
lwrist 27.2478
lhand -10.3641 7.50929
lfingers 7.12502
lthumb 15.633 36.8976
rfemur -20.0414 -0.476167 16.7
rtibia 73.5763
rfoot -7.20865 -6.52272
rtoes -11.7247
lfemur 4.85513 17.3652 -17.5814
ltibia 19.2859
lfoot -14.7682 14.5639
ltoes -5.19285
1161
root -1.30734 16.3728 -12.7107 356.091 -39.6681 -363.38
lowerback 6.8239 -4.1917 -5.66916
upperback -2.23939 -6.15687 -0.597566
thorax -5.6367 -2.84671 3.22318
lowerneck 8.53953 -6.43792 -3.79775
upperneck 5.40331 -9.08628 3.53053
head 0.617765 -4.67185 1.89757
rclavicle 7.20594e-014 2.8625e-014
rhumerus -45.3192 7.55372 -77.4688
rradius 36.7689
rwrist 4.21636
rhand -5.30588 -1.68086
rfingers 7.12502
rthumb 20.4995 -30.6186
lclavicle 7.20594e-014 2.8625e-014
lhumerus -35.3209 -3.10893 60.3265
lradius 38.5693
lwrist 27.4165
lhand -10.4663 7.6348
lfingers 7.12502
lthumb 15.5346 37.0308
rfemur -21.0525 -0.576746 16.9898
rtibia 73.4987
rfoot -8.05473 -6.63427
rtoes -12.0636
lfemur 5.28239 17.368 -17.6142
ltibia 19.1348
lfoot -14.969 14.6158
ltoes -5.17642
1162
root -1.33832 16.3613 -12.6454 355.995 -39.6875 -363.286
lowerback 6.91777 -4.23681 -5.80267
upperback -2.27881 -6.23822 -0.602212
thorax -5.71172 -2.87829 3.30979
lowerneck 8.49172 -6.19609 -3.5816
upperneck 5.47488 -8.74378 3.4058
head 0.618042 -4.49636 1.81397
rclavicle 1.33683e-013 1.43125e-014
rhumerus -45.6093 7.58453 -77.3784
rradius 36.8505
rwrist 4.19525
rhand -5.18138 -1.70641
rfingers 7.12502
rthumb 20.6191 -30.6313
lclavicle 1.33683e-013 1.43125e-014
lhumerus -35.0957 -3.25471 60.2728
lradius 38.7268
lwrist 27.5662
lhand -10.5379 7.72911
lfingers 7.12502
lthumb 15.4656 37.1305
rfemur -22.0518 -0.651929 17.2646
rtibia 73.3342
rfoot -8.82296 -6.7549
rtoes -12.3771
lfemur 5.71789 17.391 -17.6655
ltibia 18.9547
lfoot -15.1696 14.6403
ltoes -5.09351
1163
root -1.36961 16.3499 -12.5798 355.896 -39.703 -363.172
lowerback 7.00099 -4.27965 -5.94149
upperback -2.31222 -6.31642 -0.608671
thorax -5.77399 -2.90862 3.39595
lowerneck 8.4417 -5.94477 -3.3679
upperneck 5.52598 -8.38846 3.2958
head 0.613781 -4.3143 1.7357
rclavicle 9.76033e-014 -7.15625e-015
rhumerus -45.8807 7.58165 -77.2635
rradius 36.9173
rwrist 4.19061
rhand -5.06904 -1.73413
rfingers 7.12502
rthumb 20.7271 -30.6472
lclavicle 9.76033e-014 -7.15625e-015
lhumerus -34.8788 -3.42273 60.2511
lradius 38.9004
lwrist 27.7298
lhand -10.6148 7.79553
lfingers 7.12502
lthumb 15.3915 37.2026
rfemur -23.0361 -0.706181 17.5273
rtibia 73.0801
rfoot -9.5134 -6.87508
rtoes -12.8108
lfemur 6.16368 17.437 -17.7278
ltibia 18.7419
lfoot -15.3623 14.6348
ltoes -4.9954
1164
root -1.40125 16.3389 -12.5142 355.805 -39.6973 -363.049
lowerback 7.07095 -4.32571 -6.07811
upperback -2.34026 -6.39789 -0.616773
thorax -5.82283 -2.94121 3.47808
lowerneck 8.38686 -5.68843 -3.14766
upperneck 5.55916 -8.02539 3.19378
head 0.605729 -4.12804 1.65894
rclavicle 8.79622e-014 1.03368e-014
rhumerus -46.1334 7.5438 -77.1278
rradius 36.9707
rwrist 4.19652
rhand -4.96919 -1.76456
rfingers 7.12502
rthumb 20.823 -30.6672
lclavicle 8.79622e-014 1.03368e-014
lhumerus -34.6567 -3.59036 60.2479
lradius 39.0664
lwrist 27.8642
lhand -10.6573 7.81059
lfingers 7.12502
lthumb 15.3506 37.2208
rfemur -24.0047 -0.75503 17.7819
rtibia 72.7338
rfoot -10.1223 -6.97547
rtoes -13.3693
lfemur 6.61206 17.4906 -17.7969
ltibia 18.4921
lfoot -15.537 14.6041
ltoes -4.91558
1165
root -1.43339 16.3285 -12.4481 355.725 -39.6743 -362.923
lowerback 7.12177 -4.37356 -6.20349
upperback -2.36021 -6.47921 -0.627556
thorax -5.85334 -2.97505 3.54907
lowerneck 8.31433 -5.42915 -2.92515
upperneck 5.59172 -7.65818 3.10233
head 0.601889 -3.93943 1.58446
rclavicle -1.60022e-014 -3.18055e-015
rhumerus -46.3666 7.47176 -76.9743
rradius 37.0068
rwrist 4.20926
rhand -4.89411 -1.79037
rfingers 7.12502
rthumb 20.8952 -30.685
lclavicle -1.60022e-014 -3.18055e-015
lhumerus -34.4269 -3.76191 60.2614
lradius 39.2195
lwrist 27.9555
lhand -10.6521 7.77192
lfingers 7.12502
lthumb 15.3557 37.1817
rfemur -24.9522 -0.799 18.031
rtibia 72.295
rfoot -10.6374 -7.03979
rtoes -14.0538
lfemur 7.07178 17.5498 -17.8664
ltibia 18.1987
lfoot -15.6955 14.5486
ltoes -4.86055
1166
root -1.46621 16.3188 -12.3814 355.658 -39.6411 -362.801
lowerback 7.15041 -4.42079 -6.31234
upperback -2.37194 -6.55632 -0.641412
thorax -5.86472 -3.00846 3.60485
lowerneck 8.22918 -5.16779 -2.6892
upperneck 5.62216 -7.28705 3.01355
head 0.600199 -3.74843 1.50816
rclavicle 3.63776e-014 -3.18055e-015
rhumerus -46.5816 7.3658 -76.8068
rradius 37.0217
rwrist 4.23188
rhand -4.84039 -1.79353
rfingers 7.12502
rthumb 20.9468 -30.6825
lclavicle 3.63776e-014 -3.18055e-015
lhumerus -34.1845 -3.92589 60.2862
lradius 39.3524
lwrist 27.9998
lhand -10.6264 7.72114
lfingers 7.12502
lthumb 15.3804 37.1291
rfemur -25.8762 -0.831444 18.2768
rtibia 71.765
rfoot -11.0712 -7.05817
rtoes -14.8216
lfemur 7.55078 17.6316 -17.9255
ltibia 17.8531
lfoot -15.8116 14.4664
ltoes -4.93007
1167
root -1.49976 16.3098 -12.3139 355.6 -39.6066 -362.676
lowerback 7.15758 -4.46424 -6.40975
upperback -2.37649 -6.62547 -0.658297
thorax -5.85837 -3.03936 3.64796
lowerneck 8.13969 -4.90276 -2.439
upperneck 5.64549 -6.90981 2.923
head 0.597557 -3.55399 1.42889
rclavicle -1.84671e-013 -2.62396e-014
rhumerus -46.7838 7.23176 -76.6295
rradius 37.0173
rwrist 4.26603
rhand -4.81702 -1.7896
rfingers 7.12502
rthumb 20.9692 -30.6761
lclavicle -1.84671e-013 -2.62396e-014
lhumerus -33.9419 -4.11335 60.3314
lradius 39.4841
lwrist 28.0359
lhand -10.5728 7.67591
lfingers 7.12502
lthumb 15.432 37.0799
rfemur -26.7742 -0.845912 18.5153
rtibia 71.1486
rfoot -11.4426 -7.02729
rtoes -15.5901
lfemur 8.05924 17.7347 -17.9788
ltibia 17.4429
lfoot -15.8879 14.3681
ltoes -5.0966
1168
root -1.53403 16.3013 -12.2456 355.545 -39.5788 -362.548
lowerback 7.14845 -4.49993 -6.49632
upperback -2.37426 -6.68169 -0.677261
thorax -5.8381 -3.06513 3.67971
lowerneck 8.04501 -4.63278 -2.17663
upperneck 5.66458 -6.52508 2.82983
head 0.595134 -3.35546 1.34669
rclavicle 6.93758e-014 -2.38542e-014
rhumerus -46.9812 7.07229 -76.4394
rradius 37.0063
rwrist 4.3224
rhand -4.79516 -1.78873
rfingers 7.12502
rthumb 20.9902 -30.6729
lclavicle 6.93758e-014 -2.38542e-014
lhumerus -33.6919 -4.29231 60.3943
lradius 39.6019
lwrist 28.0325
lhand -10.4917 7.64142
lfingers 7.12502
lthumb 15.5101 37.0393
rfemur -27.6416 -0.833175 18.7421
rtibia 70.45
rfoot -11.7897 -6.93651
rtoes -16.2549
lfemur 8.60877 17.8749 -18.0211
ltibia 16.9581
lfoot -15.919 14.2459
ltoes -5.36006
